<?xml version="1.0" standalone="no"?>
<!DOCTYPE svg PUBLIC "-//W3C//DTD SVG 20010904//EN"
 "http://www.w3.org/TR/2001/REC-SVG-20010904/DTD/svg10.dtd">
<svg version="1.0" xmlns="http://www.w3.org/2000/svg"
 width="364.000000pt" height="364.000000pt" viewBox="0 0 364.000000 364.000000"
 preserveAspectRatio="xMidYMid meet">
<metadata>
Created by potrace 1.14, written by Peter Selinger 2001-2017
</metadata>
<g transform="translate(0.000000,364.000000) scale(0.100000,-0.100000)"
fill="#000000" stroke="none">
<path d="M2210 2478 c-25 -13 -25 -16 -28 -155 l-3 -142 -82 -3 -82 -3 -9 -52
c-5 -29 -5 -72 0 -100 l9 -48 83 -3 82 -3 0 -400 0 -399 26 -10 c34 -13 160
-13 185 0 18 10 19 25 19 410 l0 400 75 0 c89 0 90 1 90 105 0 104 -1 105 -90
105 l-75 0 0 133 c0 95 -4 138 -13 151 -18 25 -149 34 -187 14z"/>
<path d="M3034 2180 c-208 -31 -376 -170 -434 -358 -29 -93 -27 -235 4 -323
57 -163 184 -280 351 -325 76 -21 221 -18 297 6 162 50 301 194 343 355 45
176 -7 365 -136 495 -114 114 -280 172 -425 150z m188 -217 c65 -30 133 -95
165 -162 23 -46 28 -69 28 -131 0 -66 -5 -85 -33 -143 -58 -117 -158 -177
-296 -177 -61 0 -82 5 -134 30 -105 53 -171 147 -180 257 -12 153 73 284 218
337 60 22 169 16 232 -11z"/>
<path d="M43 2173 c-10 -4 -13 -114 -13 -503 0 -576 -12 -520 114 -520 121 0
116 -15 116 313 0 302 8 364 59 427 39 50 84 70 159 70 75 0 119 -17 155 -59
51 -61 57 -107 57 -425 0 -160 4 -297 9 -305 12 -18 155 -27 194 -12 l27 11 0
322 c0 353 -7 407 -57 501 -36 65 -111 131 -181 158 -70 27 -212 37 -287 20
-29 -7 -73 -25 -99 -41 l-46 -30 0 28 c0 45 -16 52 -109 51 -48 0 -92 -3 -98
-6z"/>
<path d="M1355 2161 c-89 -25 -158 -67 -224 -135 -233 -244 -181 -629 109
-803 108 -65 289 -84 413 -42 184 62 323 204 343 352 6 42 4 49 -24 76 -21 21
-40 31 -61 31 -55 0 -78 -19 -114 -94 -37 -76 -87 -130 -159 -168 -36 -19 -58
-23 -138 -23 -84 0 -101 3 -146 27 -102 54 -165 157 -172 280 -3 66 -1 84 21
131 68 150 219 225 375 187 58 -13 149 -67 136 -80 -5 -4 -93 -53 -195 -109
-102 -56 -194 -110 -203 -120 -9 -10 -19 -34 -22 -53 -5 -27 -1 -40 21 -66 49
-59 75 -51 360 104 138 74 258 142 267 151 49 44 22 129 -70 220 -104 103
-231 154 -378 152 -44 0 -106 -8 -139 -18z"/>
</g>
</svg>
